<svg xmlns="http://www.w3.org/2000/svg" width="231" height="84" fill="none" viewBox="0 0 231 84"><path fill="#fff" d="M6.583 52.49v-52H.531v57.231h29.093l2.393-5.231H6.582ZM225.2.491l-24.612 42.433L175.732.492h-4.988v11.122C165.397 4.445 156.663 0 146.368 0c-9.017 0-16.768 3.387-22.156 8.971C118.918 3.445 111.467 0 103.213 0 88.456 0 76.271 10.988 74.369 25.225L63.063.491h-5.971L30.93 57.722h6.295L60.039 6.786l22.81 50.936h6.375l-1.948-4.26a28.975 28.975 0 0 0 15.931 4.751c8.254 0 15.705-3.445 21-8.965 5.387 5.578 13.138 8.965 22.156 8.965 10.294 0 19.028-4.445 24.375-11.612v11.121h5.803V12.185l22.486 38.265h2.861l22.485-38.508v45.78h5.804V.492h-4.989.012Zm-78.832 52.33c-7.653 0-14.202-3.105-18.549-8.18a28.961 28.961 0 0 0 4.497-15.531c0-.931-.052-1.85-.138-2.758h-28.971v5.515h23.56c-1.37 11.803-11.387 20.976-23.56 20.976-13.104 0-23.734-10.624-23.734-23.733 0-13.11 10.624-23.734 23.734-23.734 10.196 0 18.861 6.439 22.219 15.462h5.677a29.185 29.185 0 0 0-3.295-7.26c4.341-5.081 10.896-8.185 18.555-8.185 13.733 0 23.959 10.058 23.959 23.71 0 13.654-10.22 23.712-23.959 23.712l.005.005Z"/><path fill="#fff" d="M60.08 23.611a8.25 8.25 0 1 0 .001 16.499 8.25 8.25 0 0 0-.001-16.499ZM6.086 65.154H.536v15.468h1.128v-5.057H6.08c3.89 0 6.231-1.948 6.231-5.191s-2.34-5.214-6.23-5.214l.005-.006Zm0 9.388H1.664v-8.376H6.08c3.312 0 5.081 1.526 5.081 4.196s-1.769 4.174-5.08 4.174l.005.005Zm31.468-1.278h8.243v-.994h-8.243v-6.098h9.214v-1.018h-10.34v15.468h10.67v-1.017h-9.544v-6.34Zm45.763-2.896c0-3.271-2.341-5.214-6.231-5.214h-5.543v15.468h1.127v-5.057h4.416c.532 0 1.017-.047 1.503-.11l3.688 5.167h1.283l-3.867-5.41c2.3-.688 3.624-2.387 3.624-4.838v-.006Zm-6.231 4.197H72.67v-8.4h4.416c3.312 0 5.08 1.527 5.08 4.197s-1.768 4.197-5.08 4.197v.006Zm31.826-1.301h8.237v-.994h-8.237v-6.098h9.208v-1.018h-10.335v15.468h10.67v-1.017h-9.543v-6.34Zm45.543 9.347c-1.173 0-2.387-.641-3.665-1.988 3.867-.619 6.63-3.711 6.63-7.734 0-4.509-3.445-7.844-8.04-7.844-4.595 0-8.04 3.358-8.04 7.844 0 4.485 3.404 7.82 8 7.844 1.924 2.011 3.421 2.826 5.127 2.826 1.456 0 2.716-.595 3.647-1.745l-.595-.688c-.838.994-1.833 1.48-3.052 1.48l-.012.005Zm-11.994-9.722c0-3.867 2.959-6.804 6.913-6.804s6.896 2.937 6.896 6.804c0 3.867-2.959 6.803-6.896 6.803-3.936 0-6.913-2.936-6.913-6.803Zm50.312 1.127c0 3.866-1.833 5.676-5.058 5.676-3.226 0-5.081-1.81-5.081-5.676v-8.862h-1.127v8.902c0 4.416 2.341 6.67 6.185 6.67 3.844 0 6.208-2.254 6.208-6.67v-8.902h-1.127v8.862Zm34.207-10.122h1.104l-2.786-2.607h-1.237l-2.78 2.607h1.104l2.295-1.919 2.3 1.919Zm-6.364 9.37h8.243v-.994h-8.243v-6.098h9.214v-1.018h-10.341v15.468h10.67v-1.017h-9.543v-6.34Z"/></svg>